<svg width="652" height="120" viewBox="0 0 652 120" fill="none" xmlns="http://www.w3.org/2000/svg">
<path d="M19.8887 53.6422H91.0984V82.7735C91.0984 102.437 75.1576 118.378 55.4935 118.378C35.8295 118.378 19.8887 102.437 19.8887 82.7735V53.6422Z" fill="#53D48F"/>
<path d="M19.8887 3.4718H91.0984V55.2607H19.8887V3.4718Z" fill="white"/>
<path d="M81.5348 87.4816V32.4559V8.17984L91.1178 7.82825L91.0887 17.8696V66.476C91.0887 78.0018 91.7595 89.0988 89.1029 94.6036C79.5263 117.737 59.5282 119.161 51.0503 118.093C69.1764 118.093 80.9953 96.6525 81.5348 87.4816Z" fill="black" fill-opacity="0.1"/>
<path d="M19.9353 71.4911L91.0406 58.5439L19.9348 58.3127L19.9353 71.4911Z" fill="black" fill-opacity="0.1"/>
<path fill-rule="evenodd" clip-rule="evenodd" d="M110.519 58.4977H0.467773V48.7872H110.519V58.4977Z" fill="#53D48F"/>
<path fill-rule="evenodd" clip-rule="evenodd" d="M110.519 9.94797H0.467773V0.237549H110.519V9.94797Z" fill="white"/>
<path fill-rule="evenodd" clip-rule="evenodd" d="M68.3631 101.092C62.5783 97.3624 60.65 90.7521 60.3589 86.329L70.0483 85.6913C70.2368 88.5546 71.4734 91.5435 73.6247 92.9305C75.432 94.0956 79.703 95.2363 88.7777 90.299C94.9845 86.922 101.143 86.679 106.79 88.7083C112.229 90.6631 116.868 94.5985 120.675 99.0302L113.31 105.358C110.089 101.609 106.765 99.0177 103.506 97.8465C100.455 96.7499 97.1801 96.782 93.4185 98.8287C82.9284 104.536 74.492 105.043 68.3631 101.092Z" fill="#53D48F"/>
<path d="M622.515 94.7395C608.14 94.7395 597.892 89.4155 590.704 81.2963L597.892 75.0405C604.414 81.9618 611.867 85.8217 622.782 85.8217C633.43 85.8217 641.016 82.0949 641.016 73.9757C641.016 66.7883 635.16 64.9249 628.904 63.9931L618.123 62.3959C608.407 60.9318 594.564 58.2698 594.564 43.3625C594.564 29.653 606.277 22.8649 622.249 22.8649C634.628 22.8649 643.678 26.991 650.2 33.9123L643.279 40.4342C640.085 36.5743 633.962 31.7826 621.85 31.7826C611.069 31.7826 605.079 35.6426 605.079 42.6969C605.079 49.8844 611.069 51.7478 617.191 52.6795L627.972 54.2767C637.822 55.7409 651.531 58.4029 651.531 73.3102C651.531 86.8866 640.085 94.7395 622.515 94.7395Z" fill="white"/>
<path d="M520.213 93.1415V84.0906H540.311V33.5122H520.213V24.4613H550.959V41.7645H551.625C554.287 32.7136 560.409 24.4613 574.784 24.4613H584.368V35.1094H571.457C558.014 35.1094 550.959 43.761 550.959 54.4091V84.0906H577.58V93.1415H520.213Z" fill="white"/>
<path d="M479.269 94.7395C459.57 94.7395 447.059 80.6308 447.059 58.9353C447.059 36.9736 459.969 22.8649 478.604 22.8649C497.105 22.8649 509.084 36.9736 509.084 56.4064V61.4642H458.239V64.6586C458.239 76.7709 466.358 85.5555 479.269 85.5555C488.453 85.5555 495.374 81.0301 498.968 73.5764L506.821 78.9005C502.695 88.0845 492.845 94.7395 479.269 94.7395ZM478.604 31.6495C466.891 31.6495 458.239 40.5673 458.239 52.5464V53.4781H497.637V52.014C497.637 39.9018 489.917 31.6495 478.604 31.6495Z" fill="white"/>
<path d="M378.963 119.763V24.4621H389.611V35.6426H390.143C394.536 27.2572 401.723 22.8649 411.306 22.8649C428.077 22.8649 438.193 36.3081 438.193 58.8022C438.193 81.2963 428.077 94.7395 411.306 94.7395C401.723 94.7395 394.536 90.3472 390.143 81.9618H389.611V119.763H378.963ZM407.18 85.2893C419.559 85.2893 426.746 77.0371 426.746 64.6586V52.9457C426.746 40.5673 419.559 32.3151 407.18 32.3151C397.73 32.3151 389.611 37.2398 389.611 46.4238V71.1806C389.611 80.3646 397.73 85.2893 407.18 85.2893Z" fill="white"/>
<path d="M311.533 93.1423H301.683V24.4621H311.533V32.4482H312.065C314.195 27.1241 317.655 22.8649 325.242 22.8649C333.095 22.8649 336.955 27.2572 337.754 33.6461H338.153C340.682 27.3903 344.941 22.8649 353.06 22.8649C364.241 22.8649 367.169 30.984 367.169 45.4921V93.1423H357.319V47.2224C357.319 35.5095 355.323 31.6495 348.934 31.6495C343.344 31.6495 339.351 35.3764 339.351 42.6969V93.1423H329.501V47.2224C329.501 35.5095 327.505 31.6495 321.249 31.6495C315.526 31.6495 311.533 35.3764 311.533 42.6969V93.1423Z" fill="white"/>
<path d="M278.842 93.1415V81.961H278.309C275.381 88.7492 270.057 94.7387 258.744 94.7387C244.369 94.7387 234.918 85.1555 234.918 68.5178V24.4613H245.567V66.6544C245.567 79.1659 251.29 85.2886 261.805 85.2886C270.323 85.2886 278.842 81.1624 278.842 72.1115V24.4613H289.49V93.1415H278.842Z" fill="white"/>
<path d="M162.563 93.1422V0.237549H194.108C209.948 0.237549 219.664 9.68773 219.664 24.1958C219.664 35.2432 213.674 41.4989 205.156 44.161V44.5603C215.538 46.9561 223.125 53.478 223.125 66.3889C223.125 81.4293 212.476 93.1422 198.102 93.1422H162.563ZM173.744 83.4258H194.774C205.023 83.4258 211.279 78.7673 211.279 69.3171V63.8599C211.279 54.5429 205.023 49.7512 194.774 49.7512H173.744V83.4258ZM173.744 40.5672H192.911C202.228 40.5672 207.951 36.4411 207.951 27.9226V22.7317C207.951 14.2132 202.228 9.95394 192.911 9.95394H173.744V40.5672Z" fill="white"/>
</svg>
